<svg width="498" height="98" viewBox="0 0 498 98" fill="none" xmlns="http://www.w3.org/2000/svg">
<g filter="url(#filter0_d_15_2)">
<mask id="path-1-outside-1_15_2" maskUnits="userSpaceOnUse" x="3" y="-1" width="492" height="92" fill="black">
<rect fill="white" x="3" y="-1" width="492" height="92"/>
<path d="M27.625 89.875L4.6875 90C4.27083 90 4.0625 89.7917 4.0625 89.375L4.3125 1.4375C4.3125 1.10417 4.47917 0.9375 4.8125 0.9375L28.75 0.8125C33.5 0.6875 37.7917 1.77083 41.625 4.0625C45.5 6.35417 48.5833 9.45833 50.875 13.375C53.2083 17.25 54.375 21.5417 54.375 26.25V63C54.375 67.9167 53.1875 72.4167 50.8125 76.5C48.3958 80.5417 45.1875 83.7708 41.1875 86.1875C37.1875 88.5625 32.6667 89.7917 27.625 89.875ZM28.75 16.125L19.8125 16.25L19.6875 74.25H27.625C30.7917 74.25 33.4583 73.1458 35.625 70.9375C37.7917 68.7292 38.875 66.0833 38.875 63V26.125C38.875 23.4167 37.875 21.0625 35.875 19.0625C33.875 17.0208 31.5 16.0417 28.75 16.125ZM79.5625 90H65.0625C64.6458 90 64.4375 89.7917 64.4375 89.375L64.5625 1.4375C64.5625 1.10417 64.7292 0.9375 65.0625 0.9375H79.4375C79.7708 0.9375 79.9375 1.10417 79.9375 1.4375L80.0625 89.375C80.0625 89.7917 79.8958 90 79.5625 90ZM87 89.375L102.875 1.4375C102.958 1.10417 103.167 0.9375 103.5 0.9375H122.062C122.396 0.9375 122.604 1.10417 122.688 1.4375L137.938 89.375C137.979 89.7917 137.812 90 137.438 90H123.25C122.833 90 122.604 89.7917 122.562 89.375L121.188 80H103.75L102.375 89.375C102.333 89.7917 102.125 90 101.75 90H87.5C87.1667 90 87 89.7917 87 89.375ZM112.062 30.375L106.312 66.3125H118.625L113.375 30.375L112.625 25.625L112.062 30.375ZM187.812 90H146.438C146.104 90 145.938 89.7917 145.938 89.375L146.062 1.5625C146.062 1.14583 146.271 0.9375 146.688 0.9375H160.938C161.354 0.9375 161.562 1.14583 161.562 1.5625L161.438 74.25H187.812C188.229 74.25 188.438 74.4583 188.438 74.875V89.375C188.438 89.7917 188.229 90 187.812 90ZM238.688 90H197.312C196.979 90 196.812 89.7917 196.812 89.375L196.938 1.4375C196.938 1.10417 197.104 0.9375 197.438 0.9375H238.562C238.896 0.9375 239.062 1.14583 239.062 1.5625V15.875C239.062 16.2083 238.896 16.375 238.562 16.375H212.312V36.375H238.562C238.896 36.375 239.062 36.5417 239.062 36.875L239.188 51.375C239.188 51.7083 239.021 51.875 238.688 51.875H212.312V74.25H238.688C239.021 74.25 239.188 74.4583 239.188 74.875V89.5C239.188 89.8333 239.021 90 238.688 90ZM274.125 89.875L251.188 90C250.771 90 250.562 89.7917 250.562 89.375L250.812 1.4375C250.812 1.10417 250.979 0.9375 251.312 0.9375L275.25 0.8125C280 0.6875 284.292 1.77083 288.125 4.0625C292 6.35417 295.083 9.45833 297.375 13.375C299.708 17.25 300.875 21.5417 300.875 26.25V63C300.875 67.9167 299.688 72.4167 297.312 76.5C294.896 80.5417 291.688 83.7708 287.688 86.1875C283.688 88.5625 279.167 89.7917 274.125 89.875ZM275.25 16.125L266.312 16.25L266.188 74.25H274.125C277.292 74.25 279.958 73.1458 282.125 70.9375C284.292 68.7292 285.375 66.0833 285.375 63V26.125C285.375 23.4167 284.375 21.0625 282.375 19.0625C280.375 17.0208 278 16.0417 275.25 16.125ZM335.625 90H320.125C319.75 90 319.542 89.7917 319.5 89.375L304.375 1.4375C304.292 1.10417 304.417 0.9375 304.75 0.9375H319.125C319.458 0.9375 319.667 1.10417 319.75 1.4375L327.938 59.25L336.375 1.4375C336.458 1.10417 336.708 0.9375 337.125 0.9375H348.688C349.021 0.9375 349.229 1.10417 349.312 1.4375L357.625 59.25L365.938 1.4375C366.021 1.10417 366.229 0.9375 366.562 0.9375H380.812C381.229 0.9375 381.396 1.10417 381.312 1.4375L366.062 89.375C366.021 89.5417 365.896 89.6875 365.688 89.8125L365.438 90H349.938C349.688 90 349.479 89.7917 349.312 89.375L342.75 43.4375L336.25 89.375C336.208 89.7917 336 90 335.625 90ZM430.688 90H389.312C388.979 90 388.812 89.7917 388.812 89.375L388.938 1.4375C388.938 1.10417 389.104 0.9375 389.438 0.9375H430.562C430.896 0.9375 431.062 1.14583 431.062 1.5625V15.875C431.062 16.2083 430.896 16.375 430.562 16.375H404.312V36.375H430.562C430.896 36.375 431.062 36.5417 431.062 36.875L431.188 51.375C431.188 51.7083 431.021 51.875 430.688 51.875H404.312V74.25H430.688C431.021 74.25 431.188 74.4583 431.188 74.875V89.5C431.188 89.8333 431.021 90 430.688 90ZM466 90H443.062C442.729 90 442.562 89.7917 442.562 89.375L442.812 1.4375C442.812 1.10417 442.979 0.9375 443.312 0.9375H467.938C472.729 0.9375 477.083 2.10417 481 4.4375C484.833 6.77083 487.854 9.875 490.062 13.75C492.271 17.5833 493.375 21.75 493.375 26.25C493.375 29.9167 492.542 33.3333 490.875 36.5C489.208 39.6667 487.229 42.2292 484.938 44.1875C487.396 46.6458 489.312 49.5 490.688 52.75C492.062 56 492.75 59.4167 492.75 63C492.75 67.9583 491.562 72.4792 489.188 76.5625C486.771 80.6458 483.542 83.9167 479.5 86.375C475.458 88.7917 470.958 90 466 90ZM467.938 16.125H458.188V36.25H467.938C470.896 36.25 473.292 35.2083 475.125 33.125C476.958 31 477.875 28.7083 477.875 26.25C477.875 23.5417 476.896 21.1875 474.938 19.1875C472.979 17.1458 470.646 16.125 467.938 16.125ZM466 51.75H458.188L458.062 74.375H466C469.083 74.375 471.729 73.25 473.938 71C476.146 68.75 477.25 66.0833 477.25 63C477.25 59.9167 476.146 57.2708 473.938 55.0625C471.729 52.8542 469.083 51.75 466 51.75Z"/>
</mask>
<path d="M27.625 89.875L4.6875 90C4.27083 90 4.0625 89.7917 4.0625 89.375L4.3125 1.4375C4.3125 1.10417 4.47917 0.9375 4.8125 0.9375L28.75 0.8125C33.5 0.6875 37.7917 1.77083 41.625 4.0625C45.5 6.35417 48.5833 9.45833 50.875 13.375C53.2083 17.25 54.375 21.5417 54.375 26.25V63C54.375 67.9167 53.1875 72.4167 50.8125 76.5C48.3958 80.5417 45.1875 83.7708 41.1875 86.1875C37.1875 88.5625 32.6667 89.7917 27.625 89.875ZM28.75 16.125L19.8125 16.25L19.6875 74.25H27.625C30.7917 74.25 33.4583 73.1458 35.625 70.9375C37.7917 68.7292 38.875 66.0833 38.875 63V26.125C38.875 23.4167 37.875 21.0625 35.875 19.0625C33.875 17.0208 31.5 16.0417 28.75 16.125ZM79.5625 90H65.0625C64.6458 90 64.4375 89.7917 64.4375 89.375L64.5625 1.4375C64.5625 1.10417 64.7292 0.9375 65.0625 0.9375H79.4375C79.7708 0.9375 79.9375 1.10417 79.9375 1.4375L80.0625 89.375C80.0625 89.7917 79.8958 90 79.5625 90ZM87 89.375L102.875 1.4375C102.958 1.10417 103.167 0.9375 103.5 0.9375H122.062C122.396 0.9375 122.604 1.10417 122.688 1.4375L137.938 89.375C137.979 89.7917 137.812 90 137.438 90H123.25C122.833 90 122.604 89.7917 122.562 89.375L121.188 80H103.75L102.375 89.375C102.333 89.7917 102.125 90 101.75 90H87.5C87.1667 90 87 89.7917 87 89.375ZM112.062 30.375L106.312 66.3125H118.625L113.375 30.375L112.625 25.625L112.062 30.375ZM187.812 90H146.438C146.104 90 145.938 89.7917 145.938 89.375L146.062 1.5625C146.062 1.14583 146.271 0.9375 146.688 0.9375H160.938C161.354 0.9375 161.562 1.14583 161.562 1.5625L161.438 74.25H187.812C188.229 74.25 188.438 74.4583 188.438 74.875V89.375C188.438 89.7917 188.229 90 187.812 90ZM238.688 90H197.312C196.979 90 196.812 89.7917 196.812 89.375L196.938 1.4375C196.938 1.10417 197.104 0.9375 197.438 0.9375H238.562C238.896 0.9375 239.062 1.14583 239.062 1.5625V15.875C239.062 16.2083 238.896 16.375 238.562 16.375H212.312V36.375H238.562C238.896 36.375 239.062 36.5417 239.062 36.875L239.188 51.375C239.188 51.7083 239.021 51.875 238.688 51.875H212.312V74.25H238.688C239.021 74.25 239.188 74.4583 239.188 74.875V89.5C239.188 89.8333 239.021 90 238.688 90ZM274.125 89.875L251.188 90C250.771 90 250.562 89.7917 250.562 89.375L250.812 1.4375C250.812 1.10417 250.979 0.9375 251.312 0.9375L275.25 0.8125C280 0.6875 284.292 1.77083 288.125 4.0625C292 6.35417 295.083 9.45833 297.375 13.375C299.708 17.25 300.875 21.5417 300.875 26.25V63C300.875 67.9167 299.688 72.4167 297.312 76.5C294.896 80.5417 291.688 83.7708 287.688 86.1875C283.688 88.5625 279.167 89.7917 274.125 89.875ZM275.25 16.125L266.312 16.25L266.188 74.25H274.125C277.292 74.25 279.958 73.1458 282.125 70.9375C284.292 68.7292 285.375 66.0833 285.375 63V26.125C285.375 23.4167 284.375 21.0625 282.375 19.0625C280.375 17.0208 278 16.0417 275.25 16.125ZM335.625 90H320.125C319.75 90 319.542 89.7917 319.5 89.375L304.375 1.4375C304.292 1.10417 304.417 0.9375 304.75 0.9375H319.125C319.458 0.9375 319.667 1.10417 319.75 1.4375L327.938 59.25L336.375 1.4375C336.458 1.10417 336.708 0.9375 337.125 0.9375H348.688C349.021 0.9375 349.229 1.10417 349.312 1.4375L357.625 59.25L365.938 1.4375C366.021 1.10417 366.229 0.9375 366.562 0.9375H380.812C381.229 0.9375 381.396 1.10417 381.312 1.4375L366.062 89.375C366.021 89.5417 365.896 89.6875 365.688 89.8125L365.438 90H349.938C349.688 90 349.479 89.7917 349.312 89.375L342.75 43.4375L336.25 89.375C336.208 89.7917 336 90 335.625 90ZM430.688 90H389.312C388.979 90 388.812 89.7917 388.812 89.375L388.938 1.4375C388.938 1.10417 389.104 0.9375 389.438 0.9375H430.562C430.896 0.9375 431.062 1.14583 431.062 1.5625V15.875C431.062 16.2083 430.896 16.375 430.562 16.375H404.312V36.375H430.562C430.896 36.375 431.062 36.5417 431.062 36.875L431.188 51.375C431.188 51.7083 431.021 51.875 430.688 51.875H404.312V74.25H430.688C431.021 74.25 431.188 74.4583 431.188 74.875V89.5C431.188 89.8333 431.021 90 430.688 90ZM466 90H443.062C442.729 90 442.562 89.7917 442.562 89.375L442.812 1.4375C442.812 1.10417 442.979 0.9375 443.312 0.9375H467.938C472.729 0.9375 477.083 2.10417 481 4.4375C484.833 6.77083 487.854 9.875 490.062 13.75C492.271 17.5833 493.375 21.75 493.375 26.25C493.375 29.9167 492.542 33.3333 490.875 36.5C489.208 39.6667 487.229 42.2292 484.938 44.1875C487.396 46.6458 489.312 49.5 490.688 52.75C492.062 56 492.75 59.4167 492.75 63C492.75 67.9583 491.562 72.4792 489.188 76.5625C486.771 80.6458 483.542 83.9167 479.5 86.375C475.458 88.7917 470.958 90 466 90ZM467.938 16.125H458.188V36.25H467.938C470.896 36.25 473.292 35.2083 475.125 33.125C476.958 31 477.875 28.7083 477.875 26.25C477.875 23.5417 476.896 21.1875 474.938 19.1875C472.979 17.1458 470.646 16.125 467.938 16.125ZM466 51.75H458.188L458.062 74.375H466C469.083 74.375 471.729 73.25 473.938 71C476.146 68.75 477.25 66.0833 477.25 63C477.25 59.9167 476.146 57.2708 473.938 55.0625C471.729 52.8542 469.083 51.75 466 51.75Z" fill="white"/>
<path d="M27.625 89.875L27.6304 90.875L27.6415 90.8749L27.625 89.875ZM4.6875 90L4.6875 91L4.69295 91L4.6875 90ZM4.0625 89.375L3.0625 89.3722V89.375H4.0625ZM4.3125 1.4375L5.3125 1.44034V1.4375H4.3125ZM4.8125 0.9375L4.8125 1.93751L4.81772 1.93749L4.8125 0.9375ZM28.75 0.8125L28.7552 1.81249L28.7658 1.81243L28.7763 1.81215L28.75 0.8125ZM41.625 4.0625L41.1119 4.92082L41.116 4.92324L41.625 4.0625ZM50.875 13.375L50.0118 13.8801L50.0183 13.8908L50.875 13.375ZM50.8125 76.5L51.6708 77.0132L51.6769 77.0028L50.8125 76.5ZM41.1875 86.1875L41.6981 87.0474L41.7046 87.0434L41.1875 86.1875ZM28.75 16.125L28.764 17.1249L28.7721 17.1248L28.7803 17.1245L28.75 16.125ZM19.8125 16.25L19.7985 15.2501L18.8146 15.2639L18.8125 16.2478L19.8125 16.25ZM19.6875 74.25L18.6875 74.2478L18.6853 75.25H19.6875V74.25ZM35.875 19.0625L35.1606 19.7623L35.1679 19.7696L35.875 19.0625ZM27.6196 88.875L4.68205 89L4.69295 91L27.6304 90.875L27.6196 88.875ZM4.6875 89C4.63331 89 4.77634 88.9871 4.92586 89.1366C5.07537 89.2862 5.0625 89.4292 5.0625 89.375H3.0625C3.0625 89.7375 3.1538 90.193 3.51164 90.5509C3.86949 90.9087 4.32502 91 4.6875 91V89ZM5.0625 89.3778L5.3125 1.44034L3.3125 1.43466L3.0625 89.3722L5.0625 89.3778ZM5.3125 1.4375C5.3125 1.43734 5.3125 1.43767 5.3125 1.43751C5.3125 1.43735 5.3125 1.43768 5.3125 1.43752C5.3125 1.43754 5.3125 1.43756 5.3125 1.43759C5.3125 1.43765 5.3125 1.43775 5.3125 1.43787C5.31249 1.43811 5.31248 1.43848 5.31247 1.43898C5.31244 1.43996 5.31237 1.44147 5.31224 1.44347C5.31197 1.44744 5.31142 1.45361 5.31026 1.46173C5.30796 1.47782 5.30306 1.50311 5.29243 1.53498C5.27003 1.60218 5.2251 1.68911 5.14461 1.76961C5.06411 1.8501 4.97718 1.89503 4.90998 1.91743C4.87811 1.92806 4.85282 1.93296 4.83673 1.93526C4.82861 1.93642 4.82244 1.93697 4.81847 1.93724C4.81647 1.93737 4.81496 1.93744 4.81398 1.93747C4.81348 1.93748 4.81311 1.93749 4.81287 1.9375C4.81275 1.9375 4.81265 1.9375 4.81259 1.9375C4.81256 1.9375 4.81254 1.9375 4.81252 1.9375C4.81268 1.9375 4.81235 1.9375 4.81251 1.9375C4.81267 1.9375 4.81234 1.9375 4.8125 1.9375V-0.0625C4.49169 -0.0625 4.06741 0.0183801 3.73039 0.355393C3.39338 0.692406 3.3125 1.11669 3.3125 1.4375H5.3125ZM4.81772 1.93749L28.7552 1.81249L28.7448 -0.187486L4.80728 -0.0624864L4.81772 1.93749ZM28.7763 1.81215C33.3494 1.69181 37.4519 2.73276 41.1119 4.92082L42.1381 3.20418C38.1315 0.808902 33.6506 -0.316809 28.7237 -0.187154L28.7763 1.81215ZM41.116 4.92324C44.8434 7.12764 47.8054 10.1089 50.0119 13.88L51.7381 12.87C49.3613 8.8078 46.1566 5.58069 42.134 3.20176L41.116 4.92324ZM50.0183 13.8908C52.2539 17.6036 53.375 21.7157 53.375 26.25H55.375C55.375 21.3677 54.1627 16.8964 51.7317 12.8592L50.0183 13.8908ZM53.375 26.25V63H55.375V26.25H53.375ZM53.375 63C53.375 67.7476 52.2306 72.0729 49.9481 75.9972L51.6769 77.0028C54.1444 72.7604 55.375 68.0858 55.375 63H53.375ZM49.9542 75.9868C47.6209 79.8892 44.5292 83.0002 40.6704 85.3316L41.7046 87.0434C45.8458 84.5415 49.1708 81.1942 51.6708 77.0132L49.9542 75.9868ZM40.677 85.3276C36.8391 87.6064 32.4911 88.7944 27.6085 88.8751L27.6415 90.8749C32.8422 90.7889 37.5359 89.5186 41.698 87.0474L40.677 85.3276ZM28.736 15.1251L19.7985 15.2501L19.8265 17.2499L28.764 17.1249L28.736 15.1251ZM18.8125 16.2478L18.6875 74.2478L20.6875 74.2522L20.8125 16.2522L18.8125 16.2478ZM19.6875 75.25H27.625V73.25H19.6875V75.25ZM27.625 75.25C31.0531 75.25 33.9792 74.0429 36.3388 71.6378L34.9112 70.2372C32.9375 72.2488 30.5303 73.25 27.625 73.25V75.25ZM36.3388 71.6378C38.6882 69.2433 39.875 66.3462 39.875 63H37.875C37.875 65.8204 36.8951 68.2151 34.9112 70.2372L36.3388 71.6378ZM39.875 63V26.125H37.875V63H39.875ZM39.875 26.125C39.875 23.1386 38.7604 20.5337 36.5821 18.3554L35.1679 19.7696C36.9896 21.5913 37.875 23.6947 37.875 26.125H39.875ZM36.5894 18.3627C34.4025 16.1303 31.7609 15.0333 28.7197 15.1255L28.7803 17.1245C31.2391 17.05 33.3475 17.9114 35.1606 19.7623L36.5894 18.3627ZM64.4375 89.375L63.4375 89.3736V89.375H64.4375ZM64.5625 1.4375L65.5625 1.43892V1.4375H64.5625ZM79.9375 1.4375L78.9375 1.4375L78.9375 1.43892L79.9375 1.4375ZM80.0625 89.375L81.0625 89.375L81.0625 89.3736L80.0625 89.375ZM79.5625 89H65.0625V91H79.5625V89ZM65.0625 89C65.0083 89 65.1513 88.9871 65.3009 89.1366C65.4504 89.2862 65.4375 89.4292 65.4375 89.375H63.4375C63.4375 89.7375 63.5288 90.193 63.8866 90.5509C64.2445 90.9087 64.7 91 65.0625 91V89ZM65.4375 89.3764L65.5625 1.43892L63.5625 1.43608L63.4375 89.3736L65.4375 89.3764ZM65.5625 1.4375C65.5625 1.43734 65.5625 1.43767 65.5625 1.43751C65.5625 1.43735 65.5625 1.43768 65.5625 1.43752C65.5625 1.43754 65.5625 1.43756 65.5625 1.43759C65.5625 1.43765 65.5625 1.43775 65.5625 1.43787C65.5625 1.43811 65.5625 1.43848 65.5625 1.43898C65.5624 1.43996 65.5624 1.44147 65.5622 1.44347C65.562 1.44744 65.5614 1.45361 65.5603 1.46173C65.558 1.47782 65.5531 1.50311 65.5424 1.53498C65.52 1.60218 65.4751 1.68911 65.3946 1.76961C65.3141 1.8501 65.2272 1.89503 65.16 1.91743C65.1281 1.92806 65.1028 1.93296 65.0867 1.93526C65.0786 1.93642 65.0724 1.93697 65.0685 1.93724C65.0665 1.93737 65.065 1.93744 65.064 1.93747C65.0635 1.93748 65.0631 1.93749 65.0629 1.9375C65.0627 1.9375 65.0627 1.9375 65.0626 1.9375C65.0626 1.9375 65.0625 1.9375 65.0625 1.9375C65.0627 1.9375 65.0623 1.9375 65.0625 1.9375C65.0627 1.9375 65.0623 1.9375 65.0625 1.9375V-0.0625C64.7417 -0.0625 64.3174 0.0183801 63.9804 0.355393C63.6434 0.692406 63.5625 1.11669 63.5625 1.4375H65.5625ZM65.0625 1.9375H79.4375V-0.0625H65.0625V1.9375ZM79.4375 1.9375C79.4377 1.9375 79.4373 1.9375 79.4375 1.9375C79.4377 1.9375 79.4373 1.9375 79.4375 1.9375C79.4375 1.9375 79.4374 1.9375 79.4374 1.9375C79.4373 1.9375 79.4373 1.9375 79.4371 1.9375C79.4369 1.93749 79.4365 1.93748 79.436 1.93747C79.435 1.93744 79.4335 1.93737 79.4315 1.93724C79.4276 1.93697 79.4214 1.93642 79.4133 1.93526C79.3972 1.93296 79.3719 1.92806 79.34 1.91743C79.2728 1.89503 79.1859 1.8501 79.1054 1.76961C79.0249 1.68911 78.98 1.60218 78.9576 1.53498C78.9469 1.50311 78.942 1.47782 78.9397 1.46173C78.9386 1.45361 78.938 1.44744 78.9378 1.44347C78.9376 1.44147 78.9376 1.43996 78.9375 1.43898C78.9375 1.43848 78.9375 1.43811 78.9375 1.43787C78.9375 1.43775 78.9375 1.43765 78.9375 1.43759C78.9375 1.43756 78.9375 1.43754 78.9375 1.43752C78.9375 1.43768 78.9375 1.43735 78.9375 1.43751C78.9375 1.43767 78.9375 1.43734 78.9375 1.4375H80.9375C80.9375 1.11669 80.8566 0.692406 80.5196 0.355393C80.1826 0.0183801 79.7583 -0.0625 79.4375 -0.0625V1.9375ZM78.9375 1.43892L79.0625 89.3764L81.0625 89.3736L80.9375 1.43608L78.9375 1.43892ZM79.0625 89.375C79.0625 89.4765 79.0378 89.3676 79.1566 89.2191C79.2215 89.1379 79.3065 89.0754 79.3966 89.0379C79.4806 89.0029 79.5434 89 79.5625 89V91C79.9499 91 80.3988 90.8679 80.7184 90.4684C81.0038 90.1116 81.0625 89.6902 81.0625 89.375H79.0625ZM87 89.375L86.0159 89.1973L86 89.2855V89.375H87ZM102.875 1.4375L101.905 1.19496L101.897 1.22717L101.891 1.25985L102.875 1.4375ZM122.688 1.4375L123.673 1.26663L123.667 1.23052L123.658 1.19496L122.688 1.4375ZM137.938 89.375L138.933 89.2755L138.929 89.2396L138.923 89.2041L137.938 89.375ZM122.562 89.375L123.558 89.2755L123.555 89.2526L123.552 89.2299L122.562 89.375ZM121.188 80L122.177 79.8549L122.052 79H121.188V80ZM103.75 80V79H102.886L102.761 79.8549L103.75 80ZM102.375 89.375L101.386 89.2299L101.382 89.2526L101.38 89.2755L102.375 89.375ZM112.062 30.375L113.05 30.533L113.053 30.5129L113.056 30.4926L112.062 30.375ZM106.312 66.3125L105.325 66.1545L105.14 67.3125H106.312V66.3125ZM118.625 66.3125V67.3125H119.782L119.614 66.1679L118.625 66.3125ZM113.375 30.375L114.365 30.2304L114.363 30.219L113.375 30.375ZM112.625 25.625L113.613 25.469L111.632 25.5074L112.625 25.625ZM87.9841 89.5527L103.859 1.61515L101.891 1.25985L86.0159 89.1973L87.9841 89.5527ZM103.845 1.68004C103.849 1.66423 103.829 1.75496 103.718 1.84337C103.605 1.93429 103.502 1.9375 103.5 1.9375V-0.0625C103.164 -0.0625 102.791 0.0240456 102.469 0.281631C102.15 0.536704 101.984 0.877441 101.905 1.19496L103.845 1.68004ZM103.5 1.9375H122.062V-0.0625H103.5V1.9375ZM122.062 1.9375C122.06 1.9375 121.958 1.93429 121.844 1.84337C121.734 1.75496 121.713 1.66423 121.717 1.68004L123.658 1.19496C123.578 0.877441 123.412 0.536704 123.093 0.281631C122.771 0.0240456 122.398 -0.0625 122.062 -0.0625V1.9375ZM121.702 1.60837L136.952 89.5459L138.923 89.2041L123.673 1.26663L121.702 1.60837ZM136.942 89.4745C136.952 89.566 136.911 89.409 137.063 89.2191C137.238 89.0006 137.451 89 137.438 89V91C137.799 91 138.283 90.8953 138.625 90.4684C138.943 90.0701 138.965 89.6007 138.933 89.2755L136.942 89.4745ZM137.438 89H123.25V91H137.438V89ZM123.25 89C123.203 89 123.313 88.99 123.438 89.1038C123.563 89.2169 123.563 89.3255 123.558 89.2755L121.567 89.4745C121.604 89.8412 121.739 90.2622 122.093 90.5837C122.447 90.9058 122.88 91 123.25 91V89ZM123.552 89.2299L122.177 79.8549L120.198 80.1451L121.573 89.5201L123.552 89.2299ZM121.188 79H103.75V81H121.188V79ZM102.761 79.8549L101.386 89.2299L103.364 89.5201L104.739 80.1451L102.761 79.8549ZM101.38 89.2755C101.373 89.349 101.365 89.2524 101.48 89.1366C101.538 89.0787 101.604 89.0403 101.664 89.0192C101.719 88.9995 101.753 89 101.75 89V91C102.127 91 102.555 90.8902 102.895 90.5509C103.219 90.2268 103.336 89.8176 103.37 89.4745L101.38 89.2755ZM101.75 89H87.5V91H101.75V89ZM87.5 89C87.5191 89 87.5819 89.0029 87.6659 89.0379C87.756 89.0754 87.841 89.1379 87.9059 89.2191C88.0247 89.3676 88 89.4765 88 89.375H86C86 89.6902 86.0587 90.1116 86.3441 90.4684C86.6637 90.8679 87.1126 91 87.5 91V89ZM111.075 30.217L105.325 66.1545L107.3 66.4705L113.05 30.533L111.075 30.217ZM106.312 67.3125H118.625V65.3125H106.312V67.3125ZM119.614 66.1679L114.364 30.2304L112.386 30.5196L117.636 66.4571L119.614 66.1679ZM114.363 30.219L113.613 25.469L111.637 25.781L112.387 30.531L114.363 30.219ZM111.632 25.5074L111.069 30.2574L113.056 30.4926L113.618 25.7426L111.632 25.5074ZM145.938 89.375L144.938 89.3736V89.375H145.938ZM146.062 1.5625L147.062 1.56392V1.5625H146.062ZM161.562 1.5625L162.562 1.56422V1.5625H161.562ZM161.438 74.25L160.438 74.2483L160.436 75.25H161.438V74.25ZM187.812 89H146.438V91H187.812V89ZM146.438 89C146.457 89 146.519 89.0029 146.603 89.0379C146.693 89.0754 146.778 89.1379 146.843 89.2191C146.962 89.3676 146.938 89.4765 146.938 89.375H144.938C144.938 89.6902 144.996 90.1116 145.282 90.4684C145.601 90.8679 146.05 91 146.438 91V89ZM146.937 89.3764L147.062 1.56392L145.063 1.56108L144.938 89.3736L146.937 89.3764ZM147.062 1.5625C147.062 1.50831 147.075 1.65134 146.926 1.80086C146.776 1.95037 146.633 1.9375 146.688 1.9375V-0.0625C146.325 -0.0625 145.869 0.0287968 145.512 0.386643C145.154 0.74449 145.062 1.20002 145.062 1.5625H147.062ZM146.688 1.9375H160.938V-0.0625H146.688V1.9375ZM160.938 1.9375C160.992 1.9375 160.849 1.95037 160.699 1.80086C160.55 1.65134 160.562 1.50831 160.562 1.5625H162.562C162.562 1.20002 162.471 0.74449 162.113 0.386643C161.756 0.0287968 161.3 -0.0625 160.938 -0.0625V1.9375ZM160.563 1.56078L160.438 74.2483L162.437 74.2517L162.562 1.56422L160.563 1.56078ZM161.438 75.25H187.812V73.25H161.438V75.25ZM187.812 75.25C187.867 75.25 187.724 75.2629 187.574 75.1134C187.425 74.9638 187.438 74.8208 187.438 74.875H189.438C189.438 74.5125 189.346 74.057 188.988 73.6991C188.631 73.3413 188.175 73.25 187.812 73.25V75.25ZM187.438 74.875V89.375H189.438V74.875H187.438ZM187.438 89.375C187.438 89.4292 187.425 89.2862 187.574 89.1366C187.724 88.9871 187.867 89 187.812 89V91C188.175 91 188.631 90.9087 188.988 90.5509C189.346 90.193 189.438 89.7375 189.438 89.375H187.438ZM196.812 89.375L195.812 89.3736V89.375H196.812ZM196.938 1.4375L197.938 1.43892V1.4375H196.938ZM212.312 16.375V15.375H211.312V16.375H212.312ZM212.312 36.375H211.312V37.375H212.312V36.375ZM239.062 36.875H238.062L238.063 36.8836L239.062 36.875ZM239.188 51.375H240.188L240.187 51.3664L239.188 51.375ZM212.312 51.875V50.875H211.312V51.875H212.312ZM212.312 74.25H211.312V75.25H212.312V74.25ZM238.688 89H197.312V91H238.688V89ZM197.312 89C197.332 89 197.394 89.0029 197.478 89.0379C197.568 89.0754 197.653 89.1379 197.718 89.2191C197.837 89.3676 197.812 89.4765 197.812 89.375H195.812C195.812 89.6902 195.871 90.1116 196.157 90.4684C196.476 90.8679 196.925 91 197.312 91V89ZM197.812 89.3764L197.937 1.43892L195.938 1.43608L195.813 89.3736L197.812 89.3764ZM197.938 1.4375C197.937 1.43734 197.937 1.43767 197.937 1.43751C197.938 1.43735 197.937 1.43768 197.937 1.43752C197.937 1.43754 197.937 1.43756 197.937 1.43759C197.937 1.43765 197.937 1.43775 197.937 1.43787C197.937 1.43811 197.937 1.43848 197.937 1.43898C197.937 1.43996 197.937 1.44147 197.937 1.44347C197.937 1.44744 197.936 1.45361 197.935 1.46173C197.933 1.47782 197.928 1.50311 197.917 1.53498C197.895 1.60218 197.85 1.68911 197.77 1.76961C197.689 1.8501 197.602 1.89503 197.535 1.91743C197.503 1.92806 197.478 1.93296 197.462 1.93526C197.454 1.93642 197.447 1.93697 197.443 1.93724C197.441 1.93737 197.44 1.93744 197.439 1.93747C197.438 1.93748 197.438 1.93749 197.438 1.9375C197.438 1.9375 197.438 1.9375 197.438 1.9375C197.438 1.9375 197.438 1.9375 197.438 1.9375C197.438 1.9375 197.437 1.9375 197.438 1.9375C197.438 1.9375 197.437 1.9375 197.438 1.9375V-0.0625C197.117 -0.0625 196.692 0.0183801 196.355 0.355393C196.018 0.692406 195.938 1.11669 195.938 1.4375H197.938ZM197.438 1.9375H238.562V-0.0625H197.438V1.9375ZM238.562 1.9375C238.543 1.9375 238.481 1.93464 238.397 1.89964C238.307 1.8621 238.222 1.79958 238.157 1.71845C238.038 1.56994 238.062 1.46101 238.062 1.5625H240.062C240.062 1.24732 240.004 0.82589 239.718 0.469055C239.399 0.0696099 238.95 -0.0625 238.562 -0.0625V1.9375ZM238.062 1.5625V15.875H240.062V1.5625H238.062ZM238.062 15.875C238.062 15.878 238.062 15.8399 238.083 15.7775C238.105 15.7103 238.15 15.6234 238.23 15.5429C238.311 15.4624 238.398 15.4175 238.465 15.3951C238.497 15.3844 238.522 15.3795 238.538 15.3772C238.546 15.3761 238.553 15.3755 238.557 15.3753C238.559 15.3751 238.56 15.3751 238.561 15.375C238.562 15.375 238.562 15.375 238.562 15.375C238.562 15.375 238.562 15.375 238.562 15.375C238.562 15.375 238.562 15.375 238.562 15.375C238.562 15.375 238.563 15.375 238.562 15.375C238.562 15.375 238.563 15.375 238.562 15.375V17.375C238.883 17.375 239.308 17.2941 239.645 16.9571C239.982 16.6201 240.062 16.1958 240.062 15.875H238.062ZM238.562 15.375H212.312V17.375H238.562V15.375ZM211.312 16.375V36.375H213.312V16.375H211.312ZM212.312 37.375H238.562V35.375H212.312V37.375ZM238.562 37.375C238.575 37.375 238.401 37.3775 238.23 37.2071C238.06 37.0368 238.062 36.8625 238.062 36.875H240.062C240.062 36.5542 239.982 36.1299 239.645 35.7929C239.308 35.4559 238.883 35.375 238.562 35.375V37.375ZM238.063 36.8836L238.188 51.3836L240.187 51.3664L240.062 36.8664L238.063 36.8836ZM238.188 51.375C238.188 51.3875 238.185 51.2132 238.355 51.0429C238.526 50.8725 238.7 50.875 238.688 50.875V52.875C239.008 52.875 239.433 52.7941 239.77 52.4571C240.107 52.1201 240.188 51.6958 240.188 51.375H238.188ZM238.688 50.875H212.312V52.875H238.688V50.875ZM211.312 51.875V74.25H213.312V51.875H211.312ZM212.312 75.25H238.688V73.25H212.312V75.25ZM238.688 75.25C238.668 75.25 238.606 75.2471 238.522 75.2121C238.432 75.1746 238.347 75.1121 238.282 75.0309C238.163 74.8824 238.188 74.7735 238.188 74.875H240.188C240.188 74.5598 240.129 74.1384 239.843 73.7816C239.524 73.3821 239.075 73.25 238.688 73.25V75.25ZM238.188 74.875V89.5H240.188V74.875H238.188ZM238.188 89.5C238.188 89.5125 238.185 89.3382 238.355 89.1679C238.526 88.9975 238.7 89 238.688 89V91C239.008 91 239.433 90.9191 239.77 90.5821C240.107 90.2451 240.188 89.8208 240.188 89.5H238.188ZM274.125 89.875L274.13 90.875L274.142 90.8749L274.125 89.875ZM251.188 90V91L251.193 91L251.188 90ZM250.562 89.375L249.562 89.3722V89.375H250.562ZM250.812 1.4375L251.812 1.44034V1.4375H250.812ZM251.312 0.9375L251.313 1.93751L251.318 1.93749L251.312 0.9375ZM275.25 0.8125L275.255 1.81249L275.266 1.81243L275.276 1.81215L275.25 0.8125ZM288.125 4.0625L287.612 4.92082L287.616 4.92324L288.125 4.0625ZM297.375 13.375L296.512 13.8801L296.518 13.8908L297.375 13.375ZM297.312 76.5L298.171 77.0132L298.177 77.0028L297.312 76.5ZM287.688 86.1875L288.198 87.0474L288.205 87.0434L287.688 86.1875ZM275.25 16.125L275.264 17.1249L275.272 17.1248L275.28 17.1245L275.25 16.125ZM266.312 16.25L266.299 15.2501L265.315 15.2639L265.313 16.2478L266.312 16.25ZM266.188 74.25L265.188 74.2478L265.185 75.25H266.188V74.25ZM282.375 19.0625L281.661 19.7623L281.668 19.7696L282.375 19.0625ZM274.12 88.875L251.182 89L251.193 91L274.13 90.875L274.12 88.875ZM251.188 89C251.133 89 251.276 88.9871 251.426 89.1366C251.575 89.2862 251.562 89.4292 251.562 89.375H249.562C249.562 89.7375 249.654 90.193 250.012 90.5509C250.369 90.9087 250.825 91 251.188 91V89ZM251.562 89.3778L251.812 1.44034L249.813 1.43466L249.563 89.3722L251.562 89.3778ZM251.812 1.4375C251.812 1.43734 251.812 1.43767 251.812 1.43751C251.813 1.43735 251.812 1.43768 251.812 1.43752C251.812 1.43754 251.812 1.43756 251.812 1.43759C251.812 1.43765 251.812 1.43775 251.812 1.43787C251.812 1.43811 251.812 1.43848 251.812 1.43898C251.812 1.43996 251.812 1.44147 251.812 1.44347C251.812 1.44744 251.811 1.45361 251.81 1.46173C251.808 1.47782 251.803 1.50311 251.792 1.53498C251.77 1.60218 251.725 1.68911 251.645 1.76961C251.564 1.8501 251.477 1.89503 251.41 1.91743C251.378 1.92806 251.353 1.93296 251.337 1.93526C251.329 1.93642 251.322 1.93697 251.318 1.93724C251.316 1.93737 251.315 1.93744 251.314 1.93747C251.313 1.93748 251.313 1.93749 251.313 1.9375C251.313 1.9375 251.313 1.9375 251.313 1.9375C251.313 1.9375 251.313 1.9375 251.313 1.9375C251.313 1.9375 251.312 1.9375 251.313 1.9375C251.313 1.9375 251.312 1.9375 251.312 1.9375V-0.0625C250.992 -0.0625 250.567 0.0183801 250.23 0.355393C249.893 0.692406 249.812 1.11669 249.812 1.4375H251.812ZM251.318 1.93749L275.255 1.81249L275.245 -0.187486L251.307 -0.0624864L251.318 1.93749ZM275.276 1.81215C279.849 1.69181 283.952 2.73276 287.612 4.92082L288.638 3.20418C284.631 0.808902 280.151 -0.316809 275.224 -0.187154L275.276 1.81215ZM287.616 4.92324C291.343 7.12764 294.305 10.1089 296.512 13.88L298.238 12.87C295.861 8.8078 292.657 5.58069 288.634 3.20176L287.616 4.92324ZM296.518 13.8908C298.754 17.6036 299.875 21.7157 299.875 26.25H301.875C301.875 21.3677 300.663 16.8964 298.232 12.8592L296.518 13.8908ZM299.875 26.25V63H301.875V26.25H299.875ZM299.875 63C299.875 67.7476 298.731 72.0729 296.448 75.9972L298.177 77.0028C300.644 72.7604 301.875 68.0858 301.875 63H299.875ZM296.454 75.9868C294.121 79.8892 291.029 83.0002 287.17 85.3316L288.205 87.0434C292.346 84.5415 295.671 81.1942 298.171 77.0132L296.454 75.9868ZM287.177 85.3276C283.339 87.6064 278.991 88.7944 274.108 88.8751L274.142 90.8749C279.342 90.7889 284.036 89.5186 288.198 87.0474L287.177 85.3276ZM275.236 15.1251L266.299 15.2501L266.326 17.2499L275.264 17.1249L275.236 15.1251ZM265.313 16.2478L265.188 74.2478L267.187 74.2522L267.312 16.2522L265.313 16.2478ZM266.188 75.25H274.125V73.25H266.188V75.25ZM274.125 75.25C277.553 75.25 280.479 74.0429 282.839 71.6378L281.411 70.2372C279.438 72.2488 277.03 73.25 274.125 73.25V75.25ZM282.839 71.6378C285.188 69.2433 286.375 66.3462 286.375 63H284.375C284.375 65.8204 283.395 68.2151 281.411 70.2372L282.839 71.6378ZM286.375 63V26.125H284.375V63H286.375ZM286.375 26.125C286.375 23.1386 285.26 20.5337 283.082 18.3554L281.668 19.7696C283.49 21.5913 284.375 23.6947 284.375 26.125H286.375ZM283.089 18.3627C280.902 16.1303 278.261 15.0333 275.22 15.1255L275.28 17.1245C277.739 17.05 279.848 17.9114 281.661 19.7623L283.089 18.3627ZM319.5 89.375L320.495 89.2755L320.492 89.2403L320.486 89.2055L319.5 89.375ZM304.375 1.4375L305.361 1.26799L305.354 1.23119L305.345 1.19496L304.375 1.4375ZM319.75 1.4375L320.74 1.29728L320.733 1.2456L320.72 1.19496L319.75 1.4375ZM327.938 59.25L326.947 59.3902L328.927 59.3944L327.938 59.25ZM336.375 1.4375L335.405 1.19496L335.393 1.24354L335.385 1.29308L336.375 1.4375ZM349.312 1.4375L350.302 1.29518L350.295 1.24457L350.283 1.19496L349.312 1.4375ZM357.625 59.25L356.635 59.3923H358.615L357.625 59.25ZM365.938 1.4375L364.967 1.19496L364.955 1.24457L364.948 1.29518L365.938 1.4375ZM381.312 1.4375L380.342 1.19496L380.333 1.23052L380.327 1.26663L381.312 1.4375ZM366.062 89.375L367.033 89.6175L367.042 89.582L367.048 89.5459L366.062 89.375ZM365.688 89.8125L365.173 88.955L365.129 88.9815L365.087 89.0125L365.688 89.8125ZM365.438 90V91H365.771L366.038 90.8L365.438 90ZM349.312 89.375L348.323 89.5164L348.34 89.6351L348.384 89.7464L349.312 89.375ZM342.75 43.4375L343.74 43.2961L341.76 43.2974L342.75 43.4375ZM336.25 89.375L335.26 89.2349L335.257 89.2551L335.255 89.2755L336.25 89.375ZM335.625 89H320.125V91H335.625V89ZM320.125 89C320.122 89 320.156 88.9995 320.211 89.0192C320.271 89.0403 320.337 89.0787 320.395 89.1366C320.51 89.2524 320.502 89.349 320.495 89.2755L318.505 89.4745C318.539 89.8176 318.656 90.2268 318.98 90.5509C319.32 90.8902 319.748 91 320.125 91V89ZM320.486 89.2055L305.361 1.26799L303.389 1.60701L318.514 89.5445L320.486 89.2055ZM305.345 1.19496C305.33 1.13419 305.415 1.38478 305.206 1.6625C305.102 1.80118 304.974 1.87456 304.881 1.90854C304.837 1.92454 304.802 1.93144 304.781 1.93452C304.771 1.93609 304.763 1.93682 304.758 1.93716C304.755 1.93734 304.753 1.93742 304.752 1.93746C304.751 1.93748 304.751 1.93749 304.75 1.9375C304.75 1.9375 304.75 1.9375 304.75 1.9375C304.75 1.9375 304.75 1.9375 304.75 1.9375C304.75 1.9375 304.75 1.9375 304.75 1.9375C304.75 1.9375 304.75 1.9375 304.75 1.9375V-0.0625C304.459 -0.0625 303.948 0.0063842 303.606 0.4625C303.273 0.90689 303.337 1.40748 303.405 1.68004L305.345 1.19496ZM304.75 1.9375H319.125V-0.0625H304.75V1.9375ZM319.125 1.9375C319.123 1.9375 319.02 1.93429 318.907 1.84337C318.796 1.75496 318.776 1.66423 318.78 1.68004L320.72 1.19496C320.641 0.877441 320.475 0.536704 320.156 0.281631C319.834 0.0240456 319.461 -0.0625 319.125 -0.0625V1.9375ZM318.76 1.57772L326.947 59.3902L328.928 59.1098L320.74 1.29728L318.76 1.57772ZM328.927 59.3944L337.365 1.58192L335.385 1.29308L326.948 59.1056L328.927 59.3944ZM337.345 1.68004C337.342 1.69217 337.331 1.72796 337.301 1.77345C337.269 1.8208 337.227 1.86298 337.18 1.89455C337.088 1.95553 337.04 1.9375 337.125 1.9375V-0.0625C336.793 -0.0625 336.412 0.00280343 336.07 0.23045C335.709 0.471609 335.498 0.824053 335.405 1.19496L337.345 1.68004ZM337.125 1.9375H348.688V-0.0625H337.125V1.9375ZM348.688 1.9375C348.685 1.9375 348.583 1.93429 348.469 1.84337C348.359 1.75496 348.338 1.66423 348.342 1.68004L350.283 1.19496C350.203 0.877441 350.037 0.536704 349.718 0.281631C349.396 0.0240456 349.023 -0.0625 348.688 -0.0625V1.9375ZM348.323 1.57982L356.635 59.3923L358.615 59.1077L350.302 1.29518L348.323 1.57982ZM358.615 59.3923L366.927 1.57982L364.948 1.29518L356.635 59.1077L358.615 59.3923ZM366.908 1.68004C366.912 1.66423 366.891 1.75496 366.781 1.84337C366.667 1.93429 366.565 1.9375 366.562 1.9375V-0.0625C366.227 -0.0625 365.854 0.0240456 365.532 0.281631C365.213 0.536704 365.047 0.877441 364.967 1.19496L366.908 1.68004ZM366.562 1.9375H380.812V-0.0625H366.562V1.9375ZM380.812 1.9375C380.856 1.9375 380.846 1.94248 380.803 1.93027C380.759 1.91749 380.651 1.87777 380.543 1.76961C380.426 1.6526 380.363 1.50989 380.342 1.38315C380.323 1.27134 380.341 1.20013 380.342 1.19496L382.283 1.68004C382.367 1.34295 382.392 0.790174 381.957 0.355393C381.586 -0.0158616 381.099 -0.0625 380.812 -0.0625V1.9375ZM380.327 1.26663L365.077 89.2041L367.048 89.5459L382.298 1.60837L380.327 1.26663ZM365.092 89.1325C365.113 89.0482 365.152 88.9895 365.178 88.9586C365.201 88.9316 365.208 88.9338 365.173 88.955L366.202 90.67C366.543 90.4657 366.904 90.1322 367.033 89.6175L365.092 89.1325ZM365.087 89.0125L364.837 89.2L366.038 90.8L366.288 90.6125L365.087 89.0125ZM365.438 89H349.938V91H365.438V89ZM349.938 89C350.019 89 350.1 89.018 350.172 89.0506C350.24 89.0818 350.282 89.1181 350.301 89.1366C350.318 89.1541 350.317 89.1578 350.303 89.1339C350.289 89.1106 350.267 89.0691 350.241 89.0036L348.384 89.7464C348.574 90.2202 349.017 91 349.938 91V89ZM350.302 89.2336L343.74 43.2961L341.76 43.5789L348.323 89.5164L350.302 89.2336ZM341.76 43.2974L335.26 89.2349L337.24 89.5151L343.74 43.5776L341.76 43.2974ZM335.255 89.2755C335.248 89.349 335.24 89.2524 335.355 89.1366C335.413 89.0787 335.479 89.0403 335.539 89.0192C335.594 88.9995 335.628 89 335.625 89V91C336.002 91 336.43 90.8902 336.77 90.5509C337.094 90.2268 337.211 89.8176 337.245 89.4745L335.255 89.2755ZM388.812 89.375L387.812 89.3736V89.375H388.812ZM388.938 1.4375L389.938 1.43892V1.4375H388.938ZM404.312 16.375V15.375H403.312V16.375H404.312ZM404.312 36.375H403.312V37.375H404.312V36.375ZM431.062 36.875H430.062L430.063 36.8836L431.062 36.875ZM431.188 51.375H432.188L432.187 51.3664L431.188 51.375ZM404.312 51.875V50.875H403.312V51.875H404.312ZM404.312 74.25H403.312V75.25H404.312V74.25ZM430.688 89H389.312V91H430.688V89ZM389.312 89C389.332 89 389.394 89.0029 389.478 89.0379C389.568 89.0754 389.653 89.1379 389.718 89.2191C389.837 89.3676 389.812 89.4765 389.812 89.375H387.812C387.812 89.6902 387.871 90.1116 388.157 90.4684C388.476 90.8679 388.925 91 389.312 91V89ZM389.812 89.3764L389.937 1.43892L387.938 1.43608L387.813 89.3736L389.812 89.3764ZM389.938 1.4375C389.937 1.43734 389.937 1.43767 389.937 1.43751C389.938 1.43735 389.937 1.43768 389.937 1.43752C389.937 1.43754 389.937 1.43756 389.937 1.43759C389.937 1.43765 389.937 1.43775 389.937 1.43787C389.937 1.43811 389.937 1.43848 389.937 1.43898C389.937 1.43996 389.937 1.44147 389.937 1.44347C389.937 1.44744 389.936 1.45361 389.935 1.46173C389.933 1.47782 389.928 1.50311 389.917 1.53498C389.895 1.60218 389.85 1.68911 389.77 1.76961C389.689 1.8501 389.602 1.89503 389.535 1.91743C389.503 1.92806 389.478 1.93296 389.462 1.93526C389.454 1.93642 389.447 1.93697 389.443 1.93724C389.441 1.93737 389.44 1.93744 389.439 1.93747C389.438 1.93748 389.438 1.93749 389.438 1.9375C389.438 1.9375 389.438 1.9375 389.438 1.9375C389.438 1.9375 389.438 1.9375 389.438 1.9375C389.438 1.9375 389.437 1.9375 389.438 1.9375C389.438 1.9375 389.437 1.9375 389.438 1.9375V-0.0625C389.117 -0.0625 388.692 0.0183801 388.355 0.355393C388.018 0.692406 387.938 1.11669 387.938 1.4375H389.938ZM389.438 1.9375H430.562V-0.0625H389.438V1.9375ZM430.562 1.9375C430.543 1.9375 430.481 1.93464 430.397 1.89964C430.307 1.8621 430.222 1.79958 430.157 1.71845C430.038 1.56994 430.062 1.46101 430.062 1.5625H432.062C432.062 1.24732 432.004 0.82589 431.718 0.469055C431.399 0.0696099 430.95 -0.0625 430.562 -0.0625V1.9375ZM430.062 1.5625V15.875H432.062V1.5625H430.062ZM430.062 15.875C430.062 15.878 430.062 15.8399 430.083 15.7775C430.105 15.7103 430.15 15.6234 430.23 15.5429C430.311 15.4624 430.398 15.4175 430.465 15.3951C430.497 15.3844 430.522 15.3795 430.538 15.3772C430.546 15.3761 430.553 15.3755 430.557 15.3753C430.559 15.3751 430.56 15.3751 430.561 15.375C430.562 15.375 430.562 15.375 430.562 15.375C430.562 15.375 430.562 15.375 430.562 15.375C430.562 15.375 430.562 15.375 430.562 15.375C430.562 15.375 430.563 15.375 430.562 15.375C430.562 15.375 430.563 15.375 430.562 15.375V17.375C430.883 17.375 431.308 17.2941 431.645 16.9571C431.982 16.6201 432.062 16.1958 432.062 15.875H430.062ZM430.562 15.375H404.312V17.375H430.562V15.375ZM403.312 16.375V36.375H405.312V16.375H403.312ZM404.312 37.375H430.562V35.375H404.312V37.375ZM430.562 37.375C430.575 37.375 430.401 37.3775 430.23 37.2071C430.06 37.0368 430.062 36.8625 430.062 36.875H432.062C432.062 36.5542 431.982 36.1299 431.645 35.7929C431.308 35.4559 430.883 35.375 430.562 35.375V37.375ZM430.063 36.8836L430.188 51.3836L432.187 51.3664L432.062 36.8664L430.063 36.8836ZM430.188 51.375C430.188 51.3875 430.185 51.2132 430.355 51.0429C430.526 50.8725 430.7 50.875 430.688 50.875V52.875C431.008 52.875 431.433 52.7941 431.77 52.4571C432.107 52.1201 432.188 51.6958 432.188 51.375H430.188ZM430.688 50.875H404.312V52.875H430.688V50.875ZM403.312 51.875V74.25H405.312V51.875H403.312ZM404.312 75.25H430.688V73.25H404.312V75.25ZM430.688 75.25C430.668 75.25 430.606 75.2471 430.522 75.2121C430.432 75.1746 430.347 75.1121 430.282 75.0309C430.163 74.8824 430.188 74.7735 430.188 74.875H432.188C432.188 74.5598 432.129 74.1384 431.843 73.7816C431.524 73.3821 431.075 73.25 430.688 73.25V75.25ZM430.188 74.875V89.5H432.188V74.875H430.188ZM430.188 89.5C430.188 89.5125 430.185 89.3382 430.355 89.1679C430.526 88.9975 430.7 89 430.688 89V91C431.008 91 431.433 90.9191 431.77 90.5821C432.107 90.2451 432.188 89.8208 432.188 89.5H430.188ZM442.562 89.375L441.562 89.3722V89.375H442.562ZM442.812 1.4375L443.812 1.44034V1.4375H442.812ZM481 4.4375L481.52 3.58326L481.512 3.5784L481 4.4375ZM490.062 13.75L489.194 14.2451L489.196 14.2492L490.062 13.75ZM484.938 44.1875L484.288 43.4273L483.466 44.1299L484.23 44.8946L484.938 44.1875ZM489.188 76.5625L490.048 77.0718L490.052 77.0653L489.188 76.5625ZM479.5 86.375L480.013 87.2333L480.02 87.2294L479.5 86.375ZM458.188 16.125V15.125H457.188V16.125H458.188ZM458.188 36.25H457.188V37.25H458.188V36.25ZM475.125 33.125L475.876 33.7857L475.882 33.7782L475.125 33.125ZM474.938 19.1875L474.216 19.8798L474.223 19.8871L474.938 19.1875ZM458.188 51.75V50.75H457.193L457.188 51.7445L458.188 51.75ZM458.062 74.375L457.063 74.3695L457.057 75.375H458.062V74.375ZM466 89H443.062V91H466V89ZM443.062 89C443.082 89 443.144 89.0029 443.228 89.0379C443.318 89.0754 443.403 89.1379 443.468 89.2191C443.587 89.3676 443.562 89.4765 443.562 89.375H441.562C441.562 89.6902 441.621 90.1116 441.907 90.4684C442.226 90.8679 442.675 91 443.062 91V89ZM443.562 89.3778L443.812 1.44034L441.813 1.43466L441.563 89.3722L443.562 89.3778ZM443.812 1.4375C443.812 1.43734 443.812 1.43767 443.812 1.43751C443.813 1.43735 443.812 1.43768 443.812 1.43752C443.812 1.43754 443.812 1.43756 443.812 1.43759C443.812 1.43765 443.812 1.43775 443.812 1.43787C443.812 1.43811 443.812 1.43848 443.812 1.43898C443.812 1.43996 443.812 1.44147 443.812 1.44347C443.812 1.44744 443.811 1.45361 443.81 1.46173C443.808 1.47782 443.803 1.50311 443.792 1.53498C443.77 1.60218 443.725 1.68911 443.645 1.76961C443.564 1.8501 443.477 1.89503 443.41 1.91743C443.378 1.92806 443.353 1.93296 443.337 1.93526C443.329 1.93642 443.322 1.93697 443.318 1.93724C443.316 1.93737 443.315 1.93744 443.314 1.93747C443.313 1.93748 443.313 1.93749 443.313 1.9375C443.313 1.9375 443.313 1.9375 443.313 1.9375C443.313 1.9375 443.313 1.9375 443.313 1.9375C443.313 1.9375 443.312 1.9375 443.313 1.9375C443.313 1.9375 443.312 1.9375 443.312 1.9375V-0.0625C442.992 -0.0625 442.567 0.0183801 442.23 0.355393C441.893 0.692406 441.812 1.11669 441.812 1.4375H443.812ZM443.312 1.9375H467.938V-0.0625H443.312V1.9375ZM467.938 1.9375C472.559 1.9375 476.734 3.06027 480.488 5.2966L481.512 3.5784C477.432 1.14806 472.9 -0.0625 467.938 -0.0625V1.9375ZM480.48 5.2917C484.169 7.53743 487.07 10.5184 489.194 14.2451L490.931 13.2549C488.638 9.23158 485.497 6.00424 481.52 3.5833L480.48 5.2917ZM489.196 14.2492C491.315 17.928 492.375 21.9221 492.375 26.25H494.375C494.375 21.5779 493.226 17.2387 490.929 13.2508L489.196 14.2492ZM492.375 26.25C492.375 29.7585 491.579 33.0148 489.99 36.0343L491.76 36.9657C493.504 33.6518 494.375 30.0748 494.375 26.25H492.375ZM489.99 36.0343C488.372 39.1093 486.467 41.5652 484.288 43.4273L485.587 44.9477C487.991 42.8932 490.045 40.224 491.76 36.9657L489.99 36.0343ZM484.23 44.8946C486.596 47.2605 488.441 50.0064 489.767 53.1396L491.608 52.3604C490.184 48.9936 488.195 46.0312 485.645 43.4804L484.23 44.8946ZM489.767 53.1396C491.089 56.2644 491.75 59.5484 491.75 63H493.75C493.75 59.2849 493.036 55.7356 491.608 52.3604L489.767 53.1396ZM491.75 63C491.75 67.7908 490.605 72.1368 488.323 76.0597L490.052 77.0653C492.52 72.8216 493.75 68.1258 493.75 63H491.75ZM488.327 76.0532C485.994 79.9957 482.881 83.1479 478.98 85.5206L480.02 87.2294C484.202 84.6855 487.548 81.296 490.048 77.0718L488.327 76.0532ZM478.987 85.5167C475.109 87.8357 470.788 89 466 89V91C471.129 91 475.808 89.7477 480.013 87.2333L478.987 85.5167ZM467.938 15.125H458.188V17.125H467.938V15.125ZM457.188 16.125V36.25H459.188V16.125H457.188ZM458.188 37.25H467.938V35.25H458.188V37.25ZM467.938 37.25C471.162 37.25 473.839 36.1003 475.876 33.7856L474.374 32.4644C472.745 34.3164 470.63 35.25 467.938 35.25V37.25ZM475.882 33.7782C477.849 31.499 478.875 28.982 478.875 26.25H476.875C476.875 28.4347 476.068 30.501 474.368 32.4718L475.882 33.7782ZM478.875 26.25C478.875 23.2705 477.787 20.6678 475.652 18.4879L474.223 19.8871C476.005 21.7072 476.875 23.8128 476.875 26.25H478.875ZM475.659 18.4953C473.522 16.2668 470.932 15.125 467.938 15.125V17.125C470.36 17.125 472.437 18.0248 474.216 19.8797L475.659 18.4953ZM466 50.75H458.188V52.75H466V50.75ZM457.188 51.7445L457.063 74.3695L459.062 74.3805L459.187 51.7555L457.188 51.7445ZM458.062 75.375H466V73.375H458.062V75.375ZM466 75.375C469.358 75.375 472.26 74.1372 474.651 71.7005L473.224 70.2995C471.199 72.3628 468.808 73.375 466 73.375V75.375ZM474.651 71.7005C477.038 69.2682 478.25 66.3518 478.25 63H476.25C476.25 65.8148 475.253 68.2318 473.224 70.2995L474.651 71.7005ZM478.25 63C478.25 59.6476 477.038 56.7485 474.645 54.3554L473.23 55.7696C475.254 57.7931 476.25 60.1857 476.25 63H478.25ZM474.645 54.3554C472.251 51.9622 469.352 50.75 466 50.75V52.75C468.814 52.75 471.207 53.7461 473.23 55.7696L474.645 54.3554Z" fill="white" mask="url(#path-1-outside-1_15_2)"/>
</g>
<defs>
<filter id="filter0_d_15_2" x="0.0625" y="0.625" width="497.312" height="97.375" filterUnits="userSpaceOnUse" color-interpolation-filters="sRGB">
<feFlood flood-opacity="0" result="BackgroundImageFix"/>
<feColorMatrix in="SourceAlpha" type="matrix" values="0 0 0 0 0 0 0 0 0 0 0 0 0 0 0 0 0 0 127 0" result="hardAlpha"/>
<feOffset dy="4"/>
<feGaussianBlur stdDeviation="2"/>
<feComposite in2="hardAlpha" operator="out"/>
<feColorMatrix type="matrix" values="0 0 0 0 0 0 0 0 0 0 0 0 0 0 0 0 0 0 0.25 0"/>
<feBlend mode="normal" in2="BackgroundImageFix" result="effect1_dropShadow_15_2"/>
<feBlend mode="normal" in="SourceGraphic" in2="effect1_dropShadow_15_2" result="shape"/>
</filter>
</defs>
</svg>
